simulation
nRows=49
nColumns=15
endheader
time  TH_x TH_y TH_z SC_y  SC_z  SC_x  AC_y  AC_z  AC_x  GH_y  GH_z  GH_yy  EL_x  PS_y
0.750192  0.000000  0.000000  0.000000  -29.953016  22.117628  -10.000000  55.840965  24.445003  20.013850  10.669368  42.595376  -12.040949  26.037900  118.101921
0.750449  0.000000  0.000000  0.000000  -29.953016  22.117628  -5.714286  56.833280  20.877300  17.439900  10.669368  42.595376  -12.040949  26.037900  118.101921
0.750705  0.000000  0.000000  0.000000  -29.953016  22.117628  -1.428571  57.635726  17.272891  14.986081  10.669368  42.595376  -12.040949  26.037900  118.101921
0.750962  0.000000  0.000000  0.000000  -29.953016  22.117628  2.857143  58.264835  13.639840  12.626904  10.669368  42.595376  -12.040949  26.037900  118.101921
0.751218  0.000000  0.000000  0.000000  -29.953016  22.117628  7.142857  58.733390  9.985207  10.339506  10.669368  42.595376  -12.040949  26.037900  118.101921
0.751475  0.000000  0.000000  0.000000  -29.953016  22.117628  11.428571  59.050657  6.315331  8.103059  10.669368  42.595376  -12.040949  26.037900  118.101921
0.751731  0.000000  0.000000  0.000000  -29.953016  22.117628  15.714286  59.222825  2.636044  5.898180  10.669368  42.595376  -12.040949  26.037900  118.101921
0.751988  0.000000  0.000000  0.000000  -29.953016  22.117628  20.000000  59.253238  -1.047118  3.706321  10.669368  42.595376  -12.040949  26.037900  118.101921
0.752244  0.000000  0.000000  0.000000  -29.953016  22.117628  24.285714  59.142466  -4.728748  1.509305  10.669368  42.595376  -12.040949  26.037900  118.101921
0.752501  0.000000  0.000000  0.000000  -29.953016  22.117628  28.571429  58.888400  -8.403374  -0.711206  10.669368  42.595376  -12.040949  26.037900  118.101921
0.752757  0.000000  0.000000  0.000000  -29.953016  22.117628  32.857143  58.486075  -12.065330  -2.974160  10.669368  42.595376  -12.040949  26.037900  118.101921
0.753014  0.000000  0.000000  0.000000  -29.953016  22.117628  37.142857  57.927586  -15.708511  -5.299704  10.669368  42.595376  -12.040949  26.037900  118.101921
0.753270  0.000000  0.000000  0.000000  -29.953016  22.117628  41.428571  57.201708  -19.326199  -7.709739  10.669368  42.595376  -12.040949  26.037900  118.101921
0.753527  0.000000  0.000000  0.000000  -29.953016  22.117628  45.714286  56.293624  -22.910803  -10.228522  10.669368  42.595376  -12.040949  26.037900  118.101921
0.753783  0.000000  0.000000  0.000000  -29.953016  22.117628  50.000000  55.184283  -26.453556  -12.883438  10.669368  42.595376  -12.040949  26.037900  118.101921
0.754039  0.000000  0.000000  0.000000  -39.414177  7.494421  -10.000000  56.798222  33.780159  5.604486  5.379739  28.580228  12.200838  19.742950  125.815837
0.754296  0.000000  0.000000  0.000000  -39.414177  7.494421  -5.714286  58.235611  30.164163  2.891622  5.379739  28.580228  12.200838  19.742950  125.815837
0.754552  0.000000  0.000000  0.000000  -39.414177  7.494421  -1.428571  59.431940  26.496362  0.372268  5.379739  28.580228  12.200838  19.742950  125.815837
0.754809  0.000000  0.000000  0.000000  -39.414177  7.494421  2.857143  60.417613  22.787069  -1.990266  5.379739  28.580228  12.200838  19.742950  125.815837
0.755065  0.000000  0.000000  0.000000  -39.414177  7.494421  7.142857  61.216639  19.044845  -4.227005  5.379739  28.580228  12.200838  19.742950  125.815837
0.755322  0.000000  0.000000  0.000000  -39.414177  7.494421  11.428571  61.847773  15.276875  -6.364655  5.379739  28.580228  12.200838  19.742950  125.815837
0.755578  0.000000  0.000000  0.000000  -39.414177  7.494421  15.714286  62.325343  11.489364  -8.426600  5.379739  28.580228  12.200838  19.742950  125.815837
0.755835  0.000000  0.000000  0.000000  -39.414177  7.494421  20.000000  62.659885  7.687750  -10.433693  5.379739  28.580228  12.200838  19.742950  125.815837
0.756091  0.000000  0.000000  0.000000  -39.414177  7.494421  24.285714  62.858632  3.876981  -12.405064  5.379739  28.580228  12.200838  19.742950  125.815837
0.756348  0.000000  0.000000  0.000000  -39.414177  7.494421  28.571429  62.925810  0.061682  -14.358709  5.379739  28.580228  12.200838  19.742950  125.815837
0.756604  0.000000  0.000000  0.000000  -39.414177  7.494421  32.857143  62.862836  -3.753693  -16.312072  5.379739  28.580228  12.200838  19.742950  125.815837
0.756861  0.000000  0.000000  0.000000  -39.414177  7.494421  37.142857  62.668403  -7.564679  -18.282601  5.379739  28.580228  12.200838  19.742950  125.815837
0.757117  0.000000  0.000000  0.000000  -39.414177  7.494421  41.428571  62.338348  -11.366665  -20.288244  5.379739  28.580228  12.200838  19.742950  125.815837
0.757374  0.000000  0.000000  0.000000  -39.414177  7.494421  45.714286  61.865549  -15.154720  -22.348092  5.379739  28.580228  12.200838  19.742950  125.815837
0.757630  0.000000  0.000000  0.000000  -39.414177  7.494421  50.000000  61.239579  -18.923407  -24.482954  5.379739  28.580228  12.200838  19.742950  125.815837
0.757887  0.000000  0.000000  0.000000  -40.333782  12.156163  -10.000000  59.747937  26.047279  13.479351  7.155299  37.593751  6.039136  34.896266  126.751335
0.758143  0.000000  0.000000  0.000000  -40.333782  12.156163  -5.714286  60.704274  22.326753  11.146727  7.155299  37.593751  6.039136  34.896266  126.751335
0.758400  0.000000  0.000000  0.000000  -40.333782  12.156163  -1.428571  61.477224  18.574608  8.935930  7.155299  37.593751  6.039136  34.896266  126.751335
0.758656  0.000000  0.000000  0.000000  -40.333782  12.156163  2.857143  62.084935  14.797812  6.820759  7.155299  37.593751  6.039136  34.896266  126.751335
0.758913  0.000000  0.000000  0.000000  -40.333782  12.156163  7.142857  62.541224  11.002401  4.778260  7.155299  37.593751  6.039136  34.896266  126.751335
0.759169  0.000000  0.000000  0.000000  -40.333782  12.156163  11.428571  62.856170  7.193703  2.787842  7.155299  37.593751  6.039136  34.896266  126.751335
0.759425  0.000000  0.000000  0.000000  -40.333782  12.156163  15.714286  63.036567  3.376552  0.830633  7.155299  37.593751  6.039136  34.896266  126.751335
0.759682  0.000000  0.000000  0.000000  -40.333782  12.156163  20.000000  63.086281  -0.444497  -1.111220  7.155299  37.593751  6.039136  34.896266  126.751335
0.759938  0.000000  0.000000  0.000000  -40.333782  12.156163  24.285714  63.006355  -4.265037  -3.055085  7.155299  37.593751  6.039136  34.896266  126.751335
0.760195  0.000000  0.000000  0.000000  -40.333782  12.156163  28.571429  62.795112  -8.080632  -5.018400  7.155299  37.593751  6.039136  34.896266  126.751335
0.760451  0.000000  0.000000  0.000000  -40.333782  12.156163  32.857143  62.448016  -11.886691  -7.019188  7.155299  37.593751  6.039136  34.896266  126.751335
0.760708  0.000000  0.000000  0.000000  -40.333782  12.156163  37.142857  61.957515  -15.678263  -9.076686  7.155299  37.593751  6.039136  34.896266  126.751335
0.760964  0.000000  0.000000  0.000000  -40.333782  12.156163  41.428571  61.312745  -19.449896  -11.211954  7.155299  37.593751  6.039136  34.896266  126.751335
0.761221  0.000000  0.000000  0.000000  -40.333782  12.156163  45.714286  60.498927  -23.195354  -13.448618  7.155299  37.593751  6.039136  34.896266  126.751335
0.761477  0.000000  0.000000  0.000000  -40.333782  12.156163  50.000000  59.496813  -26.907386  -15.813759  7.155299  37.593751  6.039136  34.896266  126.751335
0.761734  0.000000  0.000000  0.000000  -45.800592  7.602278  -10.000000  64.614891  46.298979  8.439714  -2.983501  33.675386  15.114711  27.194477  129.396552
0.761990  0.000000  0.000000  0.000000  -45.800592  7.602278  -5.714286  66.354106  42.398864  5.953291  -2.983501  33.675386  15.114711  27.194477  129.396552
0.762247  0.000000  0.000000  0.000000  -45.800592  7.602278  -1.428571  67.777388  38.451340  3.759870  -2.983501  33.675386  15.114711  27.194477  129.396552
0.762503  0.000000  0.000000  0.000000  -45.800592  7.602278  2.857143  68.945609  34.467196  1.795291  -2.983501  33.675386  15.114711  27.194477  129.396552
